<mxfile host="Electron" agent="Mozilla/5.0 (Macintosh; Intel Mac OS X 10_15_7) AppleWebKit/537.36 (KHTML, like Gecko) draw.io/26.1.1 Chrome/132.0.6834.210 Electron/34.3.3 Safari/537.36" version="26.1.1">
  <diagram name="Page-1" id="hBoBq0eF_aggM5Ivi7u9">
    <mxGraphModel dx="743" dy="504" grid="1" gridSize="10" guides="1" tooltips="1" connect="1" arrows="1" fold="1" page="1" pageScale="1" pageWidth="850" pageHeight="1100" math="0" shadow="0">
      <root>
        <mxCell id="0" />
        <mxCell id="1" parent="0" />
        <mxCell id="-efn8vALGl1YdwpLpWK5-9" value="" style="rounded=0;whiteSpace=wrap;html=1;" parent="1" vertex="1">
          <mxGeometry width="320" height="240" as="geometry" />
        </mxCell>
        <mxCell id="-efn8vALGl1YdwpLpWK5-17" value="10&amp;nbsp;&lt;span style=&quot;font-weight: bold; color: rgb(218, 220, 224); font-family: Arial, sans-serif; background-color: rgb(31, 31, 31);&quot;&gt;Â°&lt;/span&gt;C" style="strokeWidth=1;shadow=0;dashed=0;align=center;html=1;shape=mxgraph.mockup.text.textBox;align=left;spacingLeft=4;spacingTop=-3;whiteSpace=wrap;strokeColor=#666666;mainText=;fontSize=20;verticalAlign=top;fillColor=default;" parent="1" vertex="1">
          <mxGeometry x="5" y="45" width="100" height="36" as="geometry" />
        </mxCell>
        <mxCell id="-efn8vALGl1YdwpLpWK5-21" value="&lt;h1 style=&quot;margin-top: 0px;&quot;&gt;Size&lt;/h1&gt;&lt;div&gt;Text size is 18 px, Text fields are 26px high&lt;/div&gt;&lt;p&gt;Buttons are 44 px high and 44 / 100 px width&lt;/p&gt;&lt;p&gt;Labels are Y offset (44-26)/2 = +9&lt;/p&gt;&lt;p&gt;Led Color can be RED, BLUE or GREY (OFF)&lt;/p&gt;" style="text;html=1;whiteSpace=wrap;overflow=hidden;rounded=0;" parent="1" vertex="1">
          <mxGeometry x="350" width="450" height="200" as="geometry" />
        </mxCell>
        <mxCell id="-b3Ku-cIu3cgLpvM2CON-1" value="Device" style="strokeWidth=1;shadow=0;dashed=0;align=center;html=1;shape=mxgraph.mockup.text.textBox;align=left;spacingLeft=4;spacingTop=-3;whiteSpace=wrap;strokeColor=#666666;mainText=;fontSize=20;verticalAlign=top;" parent="1" vertex="1">
          <mxGeometry x="5" y="5" width="250" height="36" as="geometry" />
        </mxCell>
        <mxCell id="4MC8IsZThux_lA-dtqpo-3" value="1.010 SG" style="strokeWidth=1;shadow=0;dashed=0;align=center;html=1;shape=mxgraph.mockup.text.textBox;align=left;spacingLeft=4;spacingTop=-3;whiteSpace=wrap;strokeColor=#666666;mainText=;fontSize=20;verticalAlign=top;fillColor=default;" vertex="1" parent="1">
          <mxGeometry x="110" y="45" width="100" height="36" as="geometry" />
        </mxCell>
        <mxCell id="4MC8IsZThux_lA-dtqpo-4" value="3.16 V" style="strokeWidth=1;shadow=0;dashed=0;align=center;shape=mxgraph.mockup.text.textBox;align=left;spacingLeft=4;spacingTop=-3;strokeColor=#666666;mainText=;fontSize=20;verticalAlign=top;fillColor=default;" vertex="1" parent="1">
          <mxGeometry x="215" y="45" width="100" height="36" as="geometry" />
        </mxCell>
        <mxCell id="4MC8IsZThux_lA-dtqpo-5" value="Timestamp" style="strokeWidth=1;shadow=0;dashed=0;align=center;html=1;shape=mxgraph.mockup.text.textBox;align=left;spacingLeft=4;spacingTop=-3;whiteSpace=wrap;strokeColor=#666666;mainText=;fontSize=16;verticalAlign=top;fillColor=default;" vertex="1" parent="1">
          <mxGeometry x="5" y="85" width="310" height="26" as="geometry" />
        </mxCell>
        <mxCell id="4MC8IsZThux_lA-dtqpo-7" value="History ...." style="strokeWidth=1;shadow=0;dashed=0;align=center;html=1;shape=mxgraph.mockup.text.textBox;align=left;spacingLeft=4;spacingTop=-3;whiteSpace=wrap;strokeColor=#666666;mainText=;fontSize=12;verticalAlign=top;" vertex="1" parent="1">
          <mxGeometry x="5" y="135" width="310" height="18" as="geometry" />
        </mxCell>
        <mxCell id="4MC8IsZThux_lA-dtqpo-9" value="History ...." style="strokeWidth=1;shadow=0;dashed=0;align=center;html=1;shape=mxgraph.mockup.text.textBox;align=left;spacingLeft=4;spacingTop=-3;whiteSpace=wrap;strokeColor=#666666;mainText=;fontSize=12;verticalAlign=top;" vertex="1" parent="1">
          <mxGeometry x="5" y="156" width="310" height="18" as="geometry" />
        </mxCell>
        <mxCell id="4MC8IsZThux_lA-dtqpo-10" value="History ...." style="strokeWidth=1;shadow=0;dashed=0;align=center;html=1;shape=mxgraph.mockup.text.textBox;align=left;spacingLeft=4;spacingTop=-3;whiteSpace=wrap;strokeColor=#666666;mainText=;fontSize=12;verticalAlign=top;" vertex="1" parent="1">
          <mxGeometry x="5" y="177" width="310" height="18" as="geometry" />
        </mxCell>
        <mxCell id="4MC8IsZThux_lA-dtqpo-11" value="History ...." style="strokeWidth=1;shadow=0;dashed=0;align=center;html=1;shape=mxgraph.mockup.text.textBox;align=left;spacingLeft=4;spacingTop=-3;whiteSpace=wrap;strokeColor=#666666;mainText=;fontSize=12;verticalAlign=top;" vertex="1" parent="1">
          <mxGeometry x="5" y="198" width="310" height="18" as="geometry" />
        </mxCell>
        <mxCell id="4MC8IsZThux_lA-dtqpo-12" value="Statusbar" style="strokeWidth=1;shadow=0;dashed=0;align=center;html=1;shape=mxgraph.mockup.text.textBox;align=left;spacingLeft=4;spacingTop=-3;whiteSpace=wrap;strokeColor=#666666;mainText=;fontSize=12;verticalAlign=top;" vertex="1" parent="1">
          <mxGeometry x="5" y="219" width="310" height="18" as="geometry" />
        </mxCell>
        <mxCell id="4MC8IsZThux_lA-dtqpo-14" value="History ...." style="strokeWidth=1;shadow=0;dashed=0;align=center;html=1;shape=mxgraph.mockup.text.textBox;align=left;spacingLeft=4;spacingTop=-3;whiteSpace=wrap;strokeColor=#666666;mainText=;fontSize=12;verticalAlign=top;" vertex="1" parent="1">
          <mxGeometry x="5" y="114" width="310" height="18" as="geometry" />
        </mxCell>
        <mxCell id="4MC8IsZThux_lA-dtqpo-15" value="10/10" style="strokeWidth=1;shadow=0;dashed=0;align=center;html=1;shape=mxgraph.mockup.text.textBox;align=left;spacingLeft=4;spacingTop=-3;whiteSpace=wrap;strokeColor=#666666;mainText=;fontSize=16;verticalAlign=middle;" vertex="1" parent="1">
          <mxGeometry x="260" y="5" width="54" height="36" as="geometry" />
        </mxCell>
      </root>
    </mxGraphModel>
  </diagram>
</mxfile>
